<svg width="51" height="32" viewBox="0 0 51 32" fill="none" xmlns="http://www.w3.org/2000/svg">
<path d="M37.5116 12.2858C37.0949 12.2783 37.0221 11.9516 37.249 11.7703C37.9186 11.2396 39.2752 10.7632 40.2573 8.94104C40.7794 7.97081 41.6899 8.83252 41.3621 9.80926C41.0496 10.7459 40.4592 11.524 39.8927 11.7845C39.5139 11.9603 38.4395 12.2989 37.5116 12.2837V12.2858ZM49.4083 11.0638C48.8722 12.1827 47.6817 14.5747 46.6007 17.1131C45.5404 19.5995 43.6879 21.4434 42.022 21.9838C40.6871 22.4179 39.5465 21.5779 38.9452 20.1942C38.7401 19.7232 39.1428 19.4942 39.4314 19.8328C40.4852 21.069 42.2206 21.3717 44.2392 18.639C45.433 17.0274 46.4282 14.2654 47.6166 12.0189C47.6936 11.8659 47.8108 11.6835 47.8987 11.5164C48.0279 11.27 47.7902 10.9499 47.4017 11.4231C46.82 12.1187 45.3994 14.4521 44.7688 15.5601C44.1383 16.6682 42.9987 18.2451 42.3085 17.8837C41.6183 17.5223 42.5321 16.2558 42.9423 15.6621C43.4198 14.9806 45.5741 11.8637 46.2556 11.0617C46.9372 10.2597 47.813 9.29592 48.5738 9.50321C49.047 9.63236 49.6406 10.5885 49.4083 11.0649V11.0638ZM39.9665 16.3914C40.3821 15.2183 41.9634 12.3336 43.9538 10.582C44.7807 9.85593 45.2637 10.0339 44.5832 10.9575C43.6977 12.1513 42.2206 14.4716 41.3274 16.7517C40.877 17.9455 39.1569 18.6803 39.9708 16.3914H39.9665ZM28.3996 23.4793C27.6703 24.226 26.406 24.9477 26.1325 25.7204C25.9155 26.3304 25.9046 26.9012 25.859 27.179C25.7939 27.573 25.3978 27.5426 25.2795 27.2507C25.2231 27.1128 25.1449 26.8404 25.0049 26.4552C24.8779 26.109 24.4417 25.9201 24.0282 25.9201C23.492 25.9201 22.5989 25.9896 22.2679 25.9896C22.041 25.9896 21.888 25.7313 22.1691 25.5555C22.379 25.4303 22.5537 25.254 22.6769 25.0429C22.8001 24.8318 22.8677 24.593 22.8734 24.3486C22.8951 23.9449 23.8621 23.9048 24.6479 23.9048C25.0266 23.9048 25.7711 24.6579 26.3214 24.3584C26.8716 24.0589 27.4783 23.7235 27.8679 22.8542C28.4105 21.6539 29.8051 18.6054 30.2001 17.7459C31.0347 15.9259 29.9831 15.5493 29.5902 15.5493C29.0041 15.5493 28.8077 15.8434 28.0437 15.7663C27.4001 15.7001 26.7218 15.5134 26.3072 15.419C26.1898 15.3865 26.0667 15.3803 25.9466 15.4009C25.8265 15.4216 25.7125 15.4685 25.6127 15.5384C25.451 15.6339 25.2784 15.7555 25.1091 15.8499C24.6023 16.1397 22.4534 16.4392 23.2641 15.9042C24.0748 15.3691 24.3407 14.7288 24.9235 14.6322C25.7125 14.4998 27.717 14.3631 29.5848 14.6322C31.3082 14.8807 32.0711 16.1223 31.2821 17.849C29.4534 21.8482 29.1365 22.7327 28.4062 23.4783L28.3996 23.4793ZM43.9071 25.6249C43.5077 25.6249 43.1116 25.5945 42.7448 25.7617C42.3454 25.9299 42.0839 26.1958 41.7203 26.3922C41.6993 26.4084 41.6749 26.4195 41.6489 26.4246C41.623 26.4298 41.5962 26.4288 41.5706 26.4219C41.5451 26.415 41.5215 26.4022 41.5017 26.3846C41.4819 26.3671 41.4665 26.3451 41.4566 26.3206C41.436 26.2676 41.4281 26.2106 41.4336 26.1541C41.4391 26.0975 41.4577 26.0431 41.488 25.995C41.8527 25.5609 41.7528 25.0389 41.9221 24.5386C42.0545 24.0415 42.519 23.7116 42.9445 23.4153C42.9703 23.4012 42.9988 23.3925 43.0281 23.3898C43.0574 23.387 43.0869 23.3903 43.115 23.3993C43.143 23.4083 43.1689 23.423 43.1911 23.4423C43.2132 23.4617 43.2313 23.4854 43.244 23.5119C43.346 24.2065 43.6781 24.7394 44.0037 25.3015C44.0688 25.4339 44.0688 25.6271 43.9082 25.6271L43.9071 25.6249ZM40.7967 25.0671C40.774 25.1074 40.7386 25.1391 40.696 25.1571C40.6534 25.1752 40.606 25.1787 40.5612 25.167C40.2638 25.0671 40.0316 24.9021 39.6995 24.8338C39.4716 24.8034 39.1753 24.7372 39.2024 24.5711C39.3045 24.0394 39.8992 23.7094 40.3963 23.538C40.4669 23.5322 40.5373 23.5529 40.5936 23.596C40.6499 23.6391 40.6883 23.7015 40.7012 23.7713C40.8314 24.2054 40.9302 24.6395 40.8011 25.0671H40.7967ZM32.426 10.1989C31.7423 10.0969 31.1161 9.43918 30.8676 9.00507C30.619 8.57096 30.3065 7.85578 30.0699 7.54756C29.8333 7.23934 29.2722 6.39934 28.0806 6.64786C27.691 6.72926 27.3882 6.81283 26.4321 6.64786C25.4759 6.4829 22.7421 6.04445 22.2635 5.9967C21.7849 5.94895 20.8527 6.01624 20.208 5.95763C19.9573 5.93484 19.9106 5.70801 20.1668 5.59514C20.6085 5.39762 21.7947 5.10135 23.3206 5.13066C24.039 5.14476 25.452 5.26306 26.6632 5.26306C28.1826 5.26306 30.8448 4.72042 31.6403 4.63902C32.617 4.54352 34.1527 5.06771 34.9645 5.35965C36.308 5.84368 37.6776 5.4953 37.5507 6.28755C37.3336 7.57793 37.72 8.09778 37.4421 8.73484C36.8235 10.175 34.0615 10.4398 32.4217 10.1967L32.426 10.1989ZM36.5663 17.0079C36.0852 17.6651 35.4566 18.2004 34.7311 18.5707C33.7283 19.0547 32.693 19.0916 32.1026 19.1024C31.739 19.1024 31.8193 18.9527 32.07 18.3742C32.9534 16.3448 32.5693 15.4125 31.9691 14.7386C31.5936 14.3164 31.6435 14.0038 33.2834 14.4586C34.2601 14.7288 34.7214 15.1868 35.9358 15.8466C36.9527 16.399 36.9125 16.5293 36.5642 17.0079H36.5663ZM25.222 22.0251C25.2629 21.9186 25.3391 21.8295 25.4379 21.7726C25.5367 21.7157 25.652 21.6945 25.7646 21.7125C26.062 21.7364 26.3431 21.922 26.1445 22.2921C25.8753 22.7967 25.6507 23.1104 25.4672 23.1104C25.3798 23.114 25.2941 23.0858 25.226 23.0308C25.1579 22.9759 25.1121 22.8981 25.0972 22.8119C25.0505 22.5579 25.1612 22.1683 25.2176 22.0251H25.222ZM25.6561 18.3569C25.9979 18.0964 27.0995 18.0986 27.4392 18.2234C27.7789 18.3482 27.5651 19.0243 27.2829 19.135C27.0007 19.2457 25.0516 18.8094 25.655 18.3569H25.6561ZM17.0412 15.4234C15.9755 15.3561 15.1279 15.0815 14.9792 15.0012C14.9471 14.9888 14.9207 14.965 14.905 14.9344C14.8893 14.9037 14.8855 14.8684 14.8942 14.8351C14.9029 14.8018 14.9236 14.7729 14.9523 14.7539C14.981 14.7349 15.0157 14.7271 15.0497 14.7321C15.9386 14.7451 17.1519 14.7038 17.535 14.6311C17.9485 14.5541 18.0234 14.2654 17.7759 14.2708C17.0395 14.2927 16.304 14.2027 15.5945 14.0038C14.5624 13.7271 12.7153 12.9479 10.7108 12.1415C6.97095 10.6362 6.32738 10.1012 5.88676 9.08105C5.63932 8.5102 5.63389 7.51608 6.18955 7.0581C6.31762 6.94957 6.43917 7.01251 6.4218 7.14709C6.3187 7.94151 6.29157 8.44182 6.99482 8.85856C7.74041 9.30027 10.3874 9.66384 11.6116 11.0584C12.0099 11.486 12.6393 12.6223 14.1229 12.6776C14.1402 12.6795 14.1576 12.6747 14.1715 12.6642C14.1853 12.6536 14.1947 12.6382 14.1976 12.6211C14.2005 12.6039 14.1967 12.5863 14.1871 12.5718C14.1775 12.5573 14.1626 12.547 14.1457 12.5431C12.4527 11.8094 12.1922 9.22864 13.6334 7.72988C15.0226 6.28538 18.4553 5.97174 19.6024 8.80647C19.7598 9.19825 19.928 9.34911 20.4196 9.59112C20.8538 9.80818 21.3964 10.0317 21.6796 10.1533C21.7835 10.2 21.8973 10.2203 22.011 10.2123C22.1246 10.2044 22.2345 10.1684 22.3308 10.1077C22.6365 9.94904 22.9558 9.81793 23.2848 9.71593C23.8274 9.53795 24.2973 9.67469 24.5773 10.1327C25.6105 11.8094 26.3951 12.211 27.0376 13.2105C27.1136 13.3299 27.0778 13.4579 26.9193 13.4742C26.1987 13.548 25.7451 13.5014 25.4618 13.268C24.8096 12.6893 24.0968 12.1828 23.3358 11.7573C22.1062 11.0508 20.424 10.4648 20.1765 10.3714C19.9595 10.29 19.8271 10.3324 19.7782 10.5071C19.6246 11.0767 19.3178 11.5932 18.8911 12.0006C18.4644 12.408 17.9342 12.6906 17.3581 12.8176C17.1693 12.8589 17.1606 13.0683 17.344 13.1432C17.7021 13.2821 18.6062 13.3809 19.1249 13.4113C19.6437 13.4417 20.0778 13.4276 20.3024 13.1725C20.5271 12.9175 20.6551 12.7384 20.9764 12.6863C21.4105 12.6179 22.0465 12.9772 22.4654 13.3288C22.4986 13.35 22.5239 13.3817 22.5371 13.4189C22.5502 13.456 22.5506 13.4965 22.5382 13.5339C22.5257 13.5713 22.5011 13.6035 22.4682 13.6253C22.4354 13.6472 22.3962 13.6574 22.3569 13.6544C21.7719 13.6804 21.4886 13.7206 21.2227 14.0755C20.3806 15.1835 18.388 15.5091 17.052 15.4255L17.0412 15.4234ZM13.3415 13.968C13.157 13.9463 11.5649 13.6858 10.7857 13.3722C9.79157 13.013 8.65204 12.3748 8.0877 11.8702C7.9618 11.7617 8.05731 11.6065 8.20273 11.6662C9.42149 12.1762 12.4765 13.37 13.4261 13.7705C13.5531 13.8259 13.4945 13.9876 13.3415 13.968ZM10.2159 16.6172C9.96413 16.7398 9.5539 16.6432 9.4801 16.3187C9.4063 15.9942 9.5832 15.6404 9.89142 15.5959C10.0191 15.5764 10.1496 15.6032 10.2594 15.6713C10.3691 15.7394 10.451 15.8444 10.4903 15.9675C10.5295 16.0906 10.5235 16.2237 10.4734 16.3428C10.4234 16.4618 10.3324 16.5591 10.217 16.6172H10.2159ZM7.9249 5.44646C8.21576 5.35964 8.33948 5.326 8.49576 5.11111C8.6325 4.92445 8.79312 4.6998 9.03188 4.80616C9.27064 4.91252 9.38243 5.43778 8.81483 5.95437C8.10615 6.59577 7.36924 6.68151 7.21188 6.22678C7.05451 5.77205 7.53746 5.5615 7.92599 5.44646H7.9249ZM9.84366 1.05111C10.0803 0.920875 10.243 1.0967 10.0607 1.38864C9.62661 2.10058 9.61359 2.56941 9.57886 3.13701C9.54413 3.70461 8.86149 3.76972 8.78987 3.24554C8.68134 2.46631 9.03405 1.49716 9.83933 1.05437L9.84366 1.05111ZM10.9289 6.74771C11.2252 6.75423 11.3869 6.68041 11.6637 6.46336C12.291 5.97716 12.902 5.44538 13.8092 5.56368C13.9829 5.58647 14.0003 5.76336 13.8331 5.85887C13.3306 6.14321 12.7077 6.59795 12.5731 7.01903C12.499 7.28125 12.493 7.55804 12.5558 7.82321C12.6458 8.28336 12.2302 8.4212 11.923 8.23996C11.6159 8.05872 10.8986 7.35437 10.3874 7.51391C10.0314 7.62244 9.93049 7.83949 9.42909 7.78197C8.33188 7.65499 8.50661 6.80522 9.03948 6.6446C9.57235 6.48398 10.2626 6.73251 10.9289 6.75313V6.74771ZM19.0316 3.83157C19.1564 3.77405 19.3235 3.78491 19.52 3.79142C20.2319 3.81204 20.6258 3.17608 21.0751 3.10988C21.5245 3.04368 21.8902 3.08382 22.2071 3.06103C22.524 3.03824 22.6759 3.0046 22.804 3.0122C22.8345 3.01686 22.8629 3.03025 22.886 3.05075C22.909 3.07126 22.9256 3.09799 22.9338 3.12772C22.9419 3.15746 22.9413 3.18893 22.9319 3.21831C22.9226 3.2477 22.9049 3.27373 22.881 3.29328C22.4741 3.65034 21.7697 3.70352 21.3389 3.93686C20.908 4.17019 20.4706 4.40027 20.0517 4.40027C19.6176 4.40027 19.0685 4.32103 18.8905 4.23964C18.6919 4.14739 18.7581 3.95747 19.0316 3.83157ZM24.5024 3.68289C25.1048 3.34212 26.1477 3.01438 27.1299 2.94926C28.1121 2.88414 28.888 2.97097 29.7617 2.86678C30.7959 2.74523 30.8806 3.05126 30.5995 3.23467C30.3184 3.41809 29.7877 3.61995 29.0172 3.77731C28.2748 3.92816 26.0956 4.0801 25.5443 4.10289C25.0364 4.13002 24.5925 4.17453 24.3831 3.96507C24.332 3.91298 24.2615 3.81639 24.5046 3.67856L24.5024 3.68289ZM41.7355 6.25391C42.0166 6.2767 43.4155 6.74445 43.7769 7.05375C43.9538 7.20461 44.275 7.79825 43.8442 8.09453C43.6548 8.23443 43.4326 8.32312 43.1989 8.35201C42.9652 8.38091 42.7281 8.34905 42.5104 8.25949C42.0307 8.08368 41.526 6.68367 41.4598 6.49266C41.3936 6.30166 41.4598 6.2322 41.7355 6.25391ZM42.3172 5.09483C42.6156 5.02863 43.5696 4.96135 44.0059 5.46274C44.1057 5.57127 44.1144 5.94677 43.5718 5.83933C42.9553 5.71669 42.404 5.55934 42.0806 5.36399C41.9286 5.27174 42.0166 5.16103 42.3139 5.09483H42.3172ZM46.9524 27.9778C47.0249 27.9391 47.1058 27.919 47.188 27.9192C47.2702 27.9194 47.351 27.9401 47.4233 27.9792C47.4955 28.0183 47.5569 28.0748 47.602 28.1435C47.6471 28.2122 47.6745 28.291 47.6817 28.3728C47.7077 28.7635 47.2476 28.9589 46.9524 28.7798C46.6572 28.6007 46.6507 28.1417 46.9524 27.9778ZM39.5725 29.698C39.4217 29.9573 38.9539 30.0127 38.7759 29.7772C38.5589 29.4863 38.8421 29.0001 39.248 29.0273C39.6539 29.0544 39.7245 29.4364 39.5736 29.698H39.5725ZM37.1448 25.6683C36.8105 25.9093 36.3504 25.9538 36.2266 25.5913C36.1029 25.2288 36.4741 24.9814 36.9386 25.0226C37.4031 25.0638 37.4812 25.4252 37.1448 25.6738V25.6683ZM27.0333 30.4001C27.3198 30.1831 27.831 30.5694 27.9525 30.9308C28.0741 31.2922 27.8082 31.5234 27.4565 31.4018C27.1548 31.2998 26.7468 30.6194 27.0333 30.4001ZM17.4753 28.2654C17.1779 28.1775 17.0803 27.8454 17.3277 27.6294C17.5751 27.4135 18.2089 27.1953 18.3663 27.5578C18.5237 27.9203 17.7716 28.3522 17.4753 28.2654ZM20.6986 23.6714C20.2578 23.6343 19.8248 23.5326 19.4136 23.3697C19.1759 23.246 19.0337 23.0854 19.088 22.8097C19.1423 22.5341 19.4299 22.4527 19.7088 22.5124C20.1103 22.5981 20.8418 23.055 20.9688 23.2981C21.0958 23.5412 20.9167 23.6714 20.6964 23.6714H20.6986ZM1.59777 13.1866C1.20816 13.3907 0.81203 13.3375 0.701332 12.9826C0.590634 12.6277 0.825053 12.4172 1.14521 12.3021C1.46536 12.1871 1.84629 12.1209 2.00366 12.4193C2.16102 12.7178 1.98847 12.9826 1.59777 13.1866ZM3.79978 8.73701C3.53606 8.78042 3.18769 8.44615 3.16924 8.20088C3.15079 7.95561 3.40583 7.97514 3.72599 8.05111C4.04614 8.12708 4.25451 8.19655 4.26862 8.40058C4.28273 8.60461 4.06459 8.69469 3.80304 8.73701H3.79978ZM48.0051 17.8164C48.3914 16.424 48.7713 14.8775 49.2412 13.6587C49.7025 12.4649 50.6271 11.6662 50.6271 10.4941C50.6271 9.90476 50.1387 9.61934 49.6732 9.11903C49.2076 8.61872 48.9927 8.22476 48.4848 8.18135C47.5232 8.09887 46.6984 9.37515 46.0234 9.60306C45.8573 9.66058 45.7477 9.53469 45.6902 9.40554C45.6207 9.25144 45.9832 8.21825 45.9485 7.9198C45.9138 7.62135 45.8052 7.10801 45.5719 6.84646C45.3386 6.58491 44.8589 6.30383 44.8003 6.08677C44.7417 5.86972 44.7232 5.58429 44.6332 5.25654C44.5431 4.92878 44.1763 4.49685 43.3742 4.36445C42.5722 4.23204 40.7945 4.64445 39.6018 4.30151C38.4091 3.95856 35.4702 2.50755 34.9688 2.27747C34.4674 2.04739 33.8835 1.74786 33.4809 1.65235C33.0783 1.55685 32.2068 1.33329 31.5632 1.28988C30.53 1.21933 28.7817 1.51778 27.3903 1.61546C26.7641 1.65019 26.1325 1.5156 25.5389 1.58072C24.792 1.66338 24.0501 1.78583 23.3162 1.94754C19.6003 2.7615 17.8475 2.81576 16.1415 2.12336C15.1452 1.71964 14.6275 1.72724 14.3855 1.55143C13.9913 1.21568 13.5794 0.901219 13.1516 0.609407C12.4092 0.113438 11.6648 -0.03308 11.324 0.00598981C10.9832 0.0450596 10.8334 0.148166 10.611 0.201344C10.3885 0.254522 10.1443 0.23607 9.75359 0.320721C9.43206 0.407079 9.13292 0.561719 8.87654 0.774093C8.62015 0.986467 8.41255 1.2516 8.26785 1.55143C7.90103 2.32631 8.0432 3.11204 8.18429 3.65685C8.21901 3.79034 8.19514 3.89453 8.0356 4.05949C7.89994 4.19949 6.19064 5.78724 5.85203 6.24956C5.51343 6.71189 5.34196 7.30446 5.25622 7.50632C5.22635 7.58381 5.16862 7.64735 5.09434 7.68449C5.02006 7.72163 4.93458 7.72969 4.85467 7.70709C4.06133 7.51066 3.15188 7.12321 2.79265 7.52476C2.43343 7.92631 2.74707 8.61004 3.16164 8.95515C3.57622 9.30027 3.91048 9.08756 4.46397 9.06368C5.01746 9.0398 5.56118 9.62368 5.62413 10.226C5.62413 10.3269 5.62413 10.3269 5.56118 10.3888C4.7342 10.9499 3.37979 11.4003 2.4356 11.5826C1.36118 11.7996 0.784898 11.7226 0.249858 12.1708C-0.264561 12.5995 0.0653637 13.6316 0.783814 13.7369C1.55544 13.8454 2.20444 13.0249 2.93048 12.7102C4.15141 12.1817 5.6556 11.6955 6.72025 11.6097C6.82118 11.6032 6.93731 11.7117 7.18909 11.8973C7.94166 12.4579 8.73625 12.9597 9.56583 13.3983C9.67436 13.4558 9.75467 13.5317 9.72863 13.6316C9.56149 14.2762 9.55824 14.8493 9.46708 15.1846C9.37591 15.52 9.21204 15.6535 9.12847 16.0528C9.07579 16.2714 9.11188 16.502 9.22885 16.694C9.34581 16.886 9.53411 17.0239 9.7525 17.0773C10.2799 17.2162 10.7737 16.9579 10.8378 16.4533C10.9018 15.9486 10.6327 15.7294 10.764 15.1824C10.8953 14.6355 10.981 14.2914 11.2176 14.1851C11.4542 14.0787 11.8786 14.1916 12.4353 14.5964C13.2232 15.1683 14.3302 15.877 15.7693 16.2243C17.2083 16.5716 18.2654 16.5803 18.7375 16.7007C19.3886 16.8668 19.8423 17.3117 20.9438 17.7534C22.0454 18.1952 23.1285 18.2961 23.4714 18.4589C24.7738 19.084 25.362 19.2707 26.8759 19.682C27.4099 19.8263 26.8477 20.9745 26.5362 21.1373C26.1553 21.3414 25.6181 21.1102 25.1134 21.3207C24.6088 21.5313 24.6175 22.5829 24.4547 22.991C24.3223 23.3166 23.5658 23.3166 23.3347 23.3166C22.7243 23.3287 22.1169 23.2283 21.5429 23.0203C21.0632 22.8293 20.7257 22.6285 20.1223 22.3246C19.2541 21.8905 18.4716 22.0696 18.2003 22.6285C17.9756 23.0887 18.2654 23.5032 18.7027 23.7138C19.1401 23.9243 20.4392 23.8766 20.9894 24.1685C21.3074 24.3378 21.6145 24.938 21.315 25.4046C20.653 26.3966 19.2747 26.5756 18.4651 26.8046C18.1547 26.8936 17.2072 27.0369 16.9218 27.2268C16.1513 27.7358 16.5962 28.6463 17.2387 28.7711C17.7217 28.8666 18.1427 28.6442 18.4325 28.4456C19.3617 27.786 20.4115 27.3159 21.5223 27.0618C22.4046 26.8448 23.4356 27.0456 24.0618 27.5567C24.7477 28.1167 25.8113 29.5102 26.1065 29.9443C26.381 30.3415 26.5948 30.8484 26.7783 31.1891C27.373 32.3037 28.2184 32.0801 28.5017 31.6352C28.611 31.4751 28.6606 31.2817 28.642 31.0887C28.6233 30.8957 28.5376 30.7154 28.3996 30.5792C28.1652 30.3426 27.4294 29.9714 27.0062 29.3138C26.5829 28.6561 26.2465 27.1693 26.5818 26.7004C26.9172 26.2316 28.6221 24.8674 29.4654 23.5651C30.3086 22.2628 31.1877 20.2007 31.2148 20.1487C31.2734 20.013 31.3722 19.8621 31.5404 19.8491C33.6339 19.6744 35.3845 19.555 37.1752 18.6976C37.3922 18.5891 37.5648 18.6401 37.6147 19.0742C37.6808 19.6777 37.8207 20.2707 38.0314 20.84C38.0922 20.9854 38.0076 21.0386 37.8252 21.0386C37.4107 21.0386 36.9169 21.0755 36.7704 21.5454C36.7238 21.7101 36.7393 21.8861 36.8139 22.0402C36.8885 22.1942 37.0171 22.3155 37.1752 22.3811C37.5919 22.5536 38.026 22.3735 38.2235 22.329C38.3912 22.288 38.5655 22.282 38.7356 22.3113C38.9057 22.3406 39.0679 22.4046 39.2122 22.4993C39.5009 22.7055 39.6192 22.8347 39.4814 23.1592C39.2025 23.8104 38.1063 24.2249 37.4855 24.4149C36.9266 24.5863 36.2245 24.6319 35.8316 24.9477C35.3128 25.3569 35.5288 26.2501 36.3026 26.3347C37.1242 26.4248 37.5604 25.7736 38.319 25.346C39.235 24.8294 40.7555 25.9505 40.4375 26.7656C40.3203 27.0683 39.8493 27.7825 39.5541 28.0918C39.2589 28.4011 38.6283 28.6474 38.3722 28.9057C38.2294 29.0521 38.1365 29.2398 38.1069 29.4422C38.0772 29.6445 38.1124 29.8511 38.2073 30.0322C38.5654 30.6432 39.4249 30.6215 39.7928 30.195C40.1325 29.8032 40.0848 29.5135 40.4038 28.8341C40.7229 28.1547 41.958 26.7221 43.2516 26.6635C44.5452 26.6049 45.8118 27.4829 46.3794 28.6593C46.629 29.1792 47.075 29.5949 47.7273 29.3366C48.3795 29.0783 48.449 28.3305 48.118 27.8888C47.7869 27.4471 47.1868 27.3874 46.579 26.9251C45.9713 26.4628 44.1133 24.9499 44.9674 23.6845C47.4787 19.9642 47.6459 19.1263 48.0149 17.7947L48.0051 17.8164Z" fill="white"/>
</svg>
